<svg width="134" height="134" viewBox="0 0 134 134" fill="none" xmlns="http://www.w3.org/2000/svg">
<g clip-path="url(#clip0_733_1579)">
<path d="M120.042 22.3333H107.944V29.7777H119.111V111.667H14.8888V29.7777H26.0554V22.3333H13.9582C13.0881 22.3478 12.2294 22.5336 11.4311 22.8801C10.6328 23.2265 9.91055 23.7269 9.30566 24.3525C8.70076 24.9782 8.22504 25.7168 7.90567 26.5263C7.5863 27.3359 7.42953 28.2004 7.44432 29.0705V112.374C7.42953 113.244 7.5863 114.108 7.90567 114.918C8.22504 115.727 8.70076 116.466 9.30566 117.092C9.91055 117.717 10.6328 118.218 11.4311 118.564C12.2294 118.911 13.0881 119.096 13.9582 119.111H120.042C120.912 119.096 121.77 118.911 122.569 118.564C123.367 118.218 124.089 117.717 124.694 117.092C125.299 116.466 125.775 115.727 126.094 114.918C126.413 114.108 126.57 113.244 126.555 112.374V29.0705C126.57 28.2004 126.413 27.3359 126.094 26.5263C125.775 25.7168 125.299 24.9782 124.694 24.3525C124.089 23.7269 123.367 23.2265 122.569 22.8801C121.77 22.5336 120.912 22.3478 120.042 22.3333Z" fill="#08A1C1"/>
<path d="M29.7773 52.1111H37.2218V59.5555H29.7773V52.1111Z" fill="#08A1C1"/>
<path d="M52.1113 52.1111H59.5558V59.5555H52.1113V52.1111Z" fill="#08A1C1"/>
<path d="M74.4443 52.1111H81.8888V59.5555H74.4443V52.1111Z" fill="#08A1C1"/>
<path d="M96.7773 52.1111H104.222V59.5555H96.7773V52.1111Z" fill="#08A1C1"/>
<path d="M29.7773 70.7222H37.2218V78.1666H29.7773V70.7222Z" fill="#08A1C1"/>
<path d="M52.1113 70.7222H59.5558V78.1666H52.1113V70.7222Z" fill="#08A1C1"/>
<path d="M74.4443 70.7222H81.8888V78.1666H74.4443V70.7222Z" fill="#08A1C1"/>
<path d="M96.7773 70.7222H104.222V78.1666H96.7773V70.7222Z" fill="#08A1C1"/>
<path d="M29.7773 89.3333H37.2218V96.7777H29.7773V89.3333Z" fill="#08A1C1"/>
<path d="M52.1113 89.3333H59.5558V96.7777H52.1113V89.3333Z" fill="#08A1C1"/>
<path d="M74.4443 89.3333H81.8888V96.7777H74.4443V89.3333Z" fill="#08A1C1"/>
<path d="M96.7773 89.3333H104.222V96.7777H96.7773V89.3333Z" fill="#08A1C1"/>
<path d="M37.2222 37.2221C38.2094 37.2221 39.1562 36.83 39.8542 36.1319C40.5523 35.4338 40.9444 34.4871 40.9444 33.4999V11.1666C40.9444 10.1794 40.5523 9.2326 39.8542 8.53455C39.1562 7.8365 38.2094 7.44434 37.2222 7.44434C36.235 7.44434 35.2883 7.8365 34.5902 8.53455C33.8922 9.2326 33.5 10.1794 33.5 11.1666V33.4999C33.5 34.4871 33.8922 35.4338 34.5902 36.1319C35.2883 36.83 36.235 37.2221 37.2222 37.2221Z" fill="#08A1C1"/>
<path d="M96.7779 37.2221C97.7651 37.2221 98.7118 36.83 99.4099 36.1319C100.108 35.4338 100.5 34.4871 100.5 33.4999V11.1666C100.5 10.1794 100.108 9.2326 99.4099 8.53455C98.7118 7.8365 97.7651 7.44434 96.7779 7.44434C95.7907 7.44434 94.8439 7.8365 94.1459 8.53455C93.4478 9.2326 93.0557 10.1794 93.0557 11.1666V33.4999C93.0557 34.4871 93.4478 35.4338 94.1459 36.1319C94.8439 36.83 95.7907 37.2221 96.7779 37.2221Z" fill="#08A1C1"/>
<path d="M48.3887 22.3333H85.6109V29.7777H48.3887V22.3333Z" fill="#08A1C1"/>
</g>
<defs>
<clipPath id="clip0_733_1579">
<rect width="134" height="134" fill="white"/>
</clipPath>
</defs>
</svg>
