<svg width="134" height="134" viewBox="0 0 134 134" fill="none" xmlns="http://www.w3.org/2000/svg">
<path d="M67.0003 11.1667C97.8371 11.1667 122.834 36.1633 122.834 67.0001C122.834 97.8368 97.8371 122.833 67.0003 122.833C36.1636 122.833 11.167 97.8368 11.167 67.0001C11.167 36.1633 36.1636 11.1667 67.0003 11.1667ZM67.0003 22.3334C55.154 22.3334 43.7928 27.0394 35.4162 35.416C27.0396 43.7926 22.3337 55.1537 22.3337 67.0001C22.3337 78.8464 27.0396 90.2076 35.4162 98.5842C43.7928 106.961 55.154 111.667 67.0003 111.667C78.8467 111.667 90.2078 106.961 98.5844 98.5842C106.961 90.2076 111.667 78.8464 111.667 67.0001C111.667 55.1537 106.961 43.7926 98.5844 35.416C90.2078 27.0394 78.8467 22.3334 67.0003 22.3334ZM67.0003 33.5001C68.3679 33.5003 69.6878 34.0023 70.7097 34.9111C71.7317 35.8198 72.3846 37.072 72.5446 38.4302L72.5837 39.0834V64.6886L87.6977 79.8027C88.6991 80.8074 89.2805 82.1557 89.3238 83.5736C89.3671 84.9914 88.869 86.3726 87.9309 87.4366C86.9927 88.5006 85.6847 89.1676 84.2725 89.3021C82.8604 89.4367 81.4499 89.0286 80.3277 88.1609L79.8029 87.6975L63.0529 70.9475C62.1851 70.079 61.6278 68.9487 61.4672 67.7315L61.417 67.0001V39.0834C61.417 37.6026 62.0052 36.1825 63.0523 35.1354C64.0994 34.0883 65.5195 33.5001 67.0003 33.5001Z" fill="#08A1C1"/>
</svg>
