<svg width="630" height="163" viewBox="0 0 630 163" fill="none" xmlns="http://www.w3.org/2000/svg">
<path d="M82.0432 3.94853C39.3356 3.94853 4.58967 38.6949 4.58967 81.402C4.58967 124.112 39.3356 158.856 82.0432 158.856C124.753 158.856 159.499 124.112 159.499 81.402C159.499 38.6949 124.753 3.94853 82.0432 3.94853ZM82.0432 162.663C37.235 162.663 0.782928 126.208 0.782928 81.402C0.782928 36.5969 37.235 0.142548 82.0432 0.142548C126.854 0.142548 163.306 36.5969 163.306 81.402C163.306 126.208 126.854 162.663 82.0432 162.663Z" fill="#FFDE30" stroke="#FFDE30" stroke-width="0.288" stroke-miterlimit="10"/>
<path fill-rule="evenodd" clip-rule="evenodd" d="M114.371 123.25H50.0279C48.7512 123.25 47.8664 121.978 48.3127 120.781L49.2266 118.329C49.492 117.613 50.1772 117.141 50.9418 117.141H113.386C114.132 117.141 114.804 117.594 115.082 118.286L116.067 120.74C116.552 121.941 115.665 123.25 114.371 123.25Z" fill="#FFDE30"/>
<path fill-rule="evenodd" clip-rule="evenodd" d="M107.691 86.5864L110.352 56.7504C110.481 55.2832 108.544 54.6498 107.779 55.9072L93.6096 79.2655C92.8741 80.4764 91.0464 80.2134 90.6835 78.8463L83.465 51.8038C83.0973 50.4292 81.1474 50.4292 80.7819 51.8038L73.5638 78.8463C73.2006 80.2134 71.3724 80.4764 70.6369 79.2655L56.466 55.9072C55.7033 54.6498 53.7659 55.2862 53.8978 56.7504L56.5567 86.5864C56.6878 88.0702 54.9062 88.9206 53.8343 87.885L35.6007 70.232C34.5239 69.1862 32.7865 70.3563 33.3466 71.7476L48.1828 108.499C48.919 110.317 50.6806 111.509 52.6396 111.509H82.1248H111.605C113.566 111.509 115.331 110.317 116.064 108.499L130.898 71.7476C131.461 70.3563 129.723 69.1862 128.646 70.232L110.41 87.885C109.343 88.9206 107.559 88.0702 107.691 86.5864Z" fill="#FFDE30"/>
<path fill-rule="evenodd" clip-rule="evenodd" d="M33.8731 63.1431C33.8731 60.7597 31.941 58.8276 29.5568 58.8276C27.1739 58.8276 25.2418 60.7597 25.2418 63.1431C25.2418 65.5272 27.1739 67.4593 29.5568 67.4593C31.941 67.4593 33.8731 65.5272 33.8731 63.1431Z" fill="#FFDE30"/>
<path fill-rule="evenodd" clip-rule="evenodd" d="M56.9384 48.7099C56.9384 46.3265 55.0055 44.3936 52.6226 44.3936C50.2392 44.3936 48.3063 46.3265 48.3063 48.7099C48.3063 51.0929 50.2392 53.0257 52.6226 53.0257C55.0055 53.0257 56.9384 51.0929 56.9384 48.7099Z" fill="#FFDE30"/>
<path fill-rule="evenodd" clip-rule="evenodd" d="M116.201 48.7099C116.201 46.3265 114.269 44.3936 111.885 44.3936C109.502 44.3936 107.569 46.3265 107.569 48.7099C107.569 51.0929 109.502 53.0257 111.885 53.0257C114.269 53.0257 116.201 51.0929 116.201 48.7099Z" fill="#FFDE30"/>
<path fill-rule="evenodd" clip-rule="evenodd" d="M138.848 63.7399C138.848 61.3569 136.915 59.424 134.531 59.424C132.148 59.424 130.216 61.3569 130.216 63.7399C130.216 66.1233 132.148 68.0553 134.531 68.0553C136.915 68.0553 138.848 66.1233 138.848 63.7399Z" fill="#FFDE30"/>
<path fill-rule="evenodd" clip-rule="evenodd" d="M86.5484 38.5917C86.5484 33.9981 84.6159 30.2748 82.2325 30.2748C79.8514 30.2748 77.9193 33.9981 77.9193 38.5917C77.9193 43.1827 79.8514 46.9067 82.2325 46.9067C84.6159 46.9067 86.5484 43.1827 86.5484 38.5917Z" fill="#FFDE30"/>
<path d="M242.824 100.207C238.142 100.207 233.931 98.2013 230.154 95.6282C228.149 94.2214 227.747 92.7179 228.851 90.5126C230.456 87.6053 231.658 84.8297 232.628 82.5245C234.031 79.4144 235.537 75.6371 237.041 71.9282C237.943 69.6205 239.546 68.8192 242.022 69.6205C254.823 73.8316 256.027 82.5245 256.027 85.8339C256.027 92.2183 252.013 100.207 242.824 100.207ZM208.558 96.6974C206.452 98.4008 204.147 99.5048 201.674 99.5048C198.667 99.5048 195.859 97.7991 195.859 95.0257C195.859 92.518 198.164 90.0106 201.973 90.0106C204.081 90.0106 206.052 90.8145 208.258 92.1189C210.266 93.32 210.466 95.226 208.558 96.6974ZM262.612 65.5412C267.325 63.5354 275.113 58.3545 275.113 46.6545C275.113 32.7497 263.813 21.6859 245.529 21.6859C222.063 21.6859 207.756 38.4666 207.756 55.9492C207.756 60.6286 208.86 64.7392 209.964 67.5497C211.068 70.2229 213.173 70.8246 215.447 69.1182L217.35 67.7492C220.46 65.4411 220.96 64.0377 219.958 60.3289C219.556 58.8567 219.256 57.1533 219.256 55.3475C219.256 45.7531 228.149 32.6495 244.926 32.6495C256.729 32.6495 262.512 39.2686 262.512 46.7547C262.512 56.6488 252.817 61.6302 244.328 60.2264C242.721 59.9267 242.222 58.9569 242.721 57.5532L243.825 54.8452C245.429 50.9341 247.537 48.6626 249.24 47.1568C251.614 45.0513 251.914 44.25 250.912 41.24L250.71 40.7407C249.942 38.3664 248.038 37.3626 245.628 37.9643C238.644 39.6707 233.532 45.6537 231.156 51.436L220.86 76.9414C220.158 78.5129 219.356 80.6185 218.254 82.8242C217.25 85.0292 215.846 85.4314 213.739 84.228C209.362 81.6201 205.953 80.6185 201.873 80.6185C189.873 80.6185 185.295 89.1092 185.295 95.7276C185.295 102.814 190.678 110.603 202.173 110.603C208.86 110.603 214.141 107.995 218.454 104.318C220.559 102.513 221.864 102.412 224.037 104.016C231.358 109.299 237.842 112.509 245.529 112.509C261.608 112.509 269.197 98.6011 269.197 86.7357C269.197 77.8111 264.917 72.0288 262.01 69.0188C260.306 67.4465 260.506 66.4457 262.612 65.5412Z" fill="#06B4BD"/>
<path d="M609.554 73.2307L603.937 87.0014C603.437 88.4077 601.933 90.7133 600.964 91.917C598.958 94.122 595.849 96.7956 592.542 96.7956C590.568 96.7956 589.364 95.7253 589.364 93.021C589.364 86.134 597.253 65.3417 605.645 65.3417C607.751 65.3417 608.853 66.6452 609.454 68.0489C610.022 69.3215 610.156 71.9264 609.554 73.2307ZM629.308 59.325C630.415 56.5494 629.408 55.0455 626.435 55.0455H620.518C617.945 55.0455 616.541 55.9499 615.537 58.3552C614.735 60.2265 613.733 60.3289 612.53 58.6568C611.027 56.3498 608.151 53.7419 602.836 53.7419C590.534 53.7419 582.511 67.781 578.566 80.2489C578.561 80.2655 578.559 80.2829 578.554 80.2973C571.733 91.8921 564.795 99.4054 560.588 99.4054C558.883 99.4054 556.677 98.2039 561.29 86.6359C564.504 78.5844 569.808 66.0292 573.024 57.656C573.626 55.9526 573.024 55.0481 571.218 55.0481L564.895 55.0579C562.019 55.0579 560.282 55.9624 559.078 58.2675L559.043 58.3038L554.452 69.7187C549.145 77.2903 544.205 81.8911 540.9 81.8911C539.294 81.8911 537.223 80.8215 540.9 70.9592L541.134 70.3567L546.315 57.656C546.347 57.5558 546.381 57.4901 546.381 57.4217C546.851 55.8498 546.215 55.0481 544.512 55.0481H537.823C535.517 55.0481 533.947 55.6162 532.844 57.0218C532.31 57.6216 531.874 58.4236 531.508 59.3617L523.121 79.9877C516.243 91.7658 509.468 99.4054 505.16 99.4054C502.954 99.4054 501.351 97.3977 505.762 86.6015L516.76 59.325C517.83 56.5494 516.826 55.0455 513.852 55.0455H508.937C505.662 55.0455 503.856 56.2496 502.655 59.325L494.864 78.6112C494.162 80.3165 492.859 83.0246 491.857 84.6301C487.278 92.3192 482.864 98.202 478.888 98.202C476.782 98.202 475.475 96.6959 479.589 86.6015L490.553 59.325C491.657 56.5494 490.653 55.0455 487.678 55.0455H482.765C479.455 55.0455 477.683 56.2496 476.482 59.325L468.057 80.117C462.206 89.9112 456.223 96.028 449.303 99.5056C447.799 100.308 447.197 99.6057 448.201 98.3014C452.914 91.8142 460.201 78.1115 460.201 67.1475C460.201 59.8273 456.991 53.7419 449.502 53.7419C444.824 53.7419 441.015 56.1495 438.909 57.9531C438.205 58.5574 437.803 58.2551 438.307 57.1511C438.809 55.7473 438.307 55.0455 436.935 55.0455H429.714C426.439 55.0455 424.633 56.2496 423.432 59.325L415.173 79.6812C408.152 91.6483 401.136 99.4054 396.757 99.4054C395.083 99.4054 392.877 98.202 397.558 86.6015L402.871 73.7322C404.879 68.6166 405.947 65.0419 405.947 62.1325C405.947 56.9515 402.471 53.7419 396.757 53.7419C391.174 53.7419 385.591 56.7519 381.68 59.8273C379.976 61.1305 379.174 60.9283 378.473 58.9569C377.301 55.6479 374.294 53.7419 369.98 53.7419C364.699 53.7419 359.586 56.4492 356.608 58.6568C355.607 59.325 355.105 58.9569 355.607 57.6534C356.209 55.9499 355.607 55.0455 353.803 55.0455H347.117C343.807 55.0455 342.001 56.2496 340.832 59.325L332.475 79.883C325.591 91.7148 318.77 99.4054 314.456 99.4054C312.251 99.4054 310.647 97.3977 315.058 86.6015L326.056 59.325C327.125 56.5494 326.156 55.0455 323.149 55.0455H318.236C314.958 55.0455 313.155 56.2496 311.951 59.325L304.163 78.6112C303.461 80.3165 302.154 83.0246 301.153 84.6301C296.574 92.3192 292.163 98.202 288.184 98.202C286.078 98.202 284.774 96.6959 288.886 86.6015L299.849 59.325C300.953 56.5494 299.949 55.0455 296.973 55.0455H292.061C288.786 55.0455 286.98 56.2496 285.779 59.325L275.982 83.5261C268.595 101.711 274.78 108.195 283.268 108.195C288.383 108.195 292.663 105.688 296.474 101.911C298.08 100.407 298.982 100.607 299.849 102.613C301.555 106.49 305.266 108.195 309.546 108.195C314.457 108.195 319.072 105.888 323.417 102.145L323.214 102.613C322.145 105.388 323.115 106.892 326.122 106.892H331.038C334.315 106.892 336.118 105.688 337.322 102.613L348.62 74.8358C349.321 73.1305 350.691 71.0249 352.098 69.8208C355.607 66.7454 359.016 65.1421 360.987 65.1421C362.594 65.1421 363.795 65.9434 363.795 67.3471C363.795 68.9194 362.091 73.0304 360.286 77.5439L350.023 102.613C348.922 105.388 349.889 106.892 352.899 106.892H357.912C361.19 106.892 362.993 105.688 364.197 102.613L375.495 74.7338C376.197 72.9279 377.6 70.9248 379.072 69.7214C382.481 66.6452 385.893 65.1421 387.964 65.1421C389.468 65.1421 390.572 65.9434 390.572 67.3471C390.572 68.9194 388.966 72.8278 387.094 77.5439L384.889 83.2264C377.7 101.109 382.181 108.195 391.876 108.195C396.989 108.195 401.704 105.888 406.083 102.079L397.858 122.403C396.757 125.177 397.759 126.683 400.734 126.683H405.647C408.959 126.683 410.728 125.476 411.932 122.403L430.818 75.6379C431.42 74.134 432.824 71.9264 433.928 70.7222C436.801 67.3471 440.213 65.1421 443.02 65.1421C445.123 65.1421 446.127 66.4457 446.127 69.3215C446.127 78.511 435.834 99.8053 429.915 99.8053C427.745 99.8053 427.141 97.2976 423.932 100.207C422.628 101.409 422.628 103.115 424.032 104.318C426.137 105.99 430.216 108.195 437.303 108.195C447.865 108.195 456.523 103.517 463.378 96.6959C463.142 104.986 467.989 108.195 473.971 108.195C479.087 108.195 483.366 105.688 487.175 101.911C488.782 100.407 489.651 100.607 490.553 102.613C492.256 106.49 495.971 108.195 500.244 108.195C505.123 108.195 509.77 105.89 514.113 102.15L513.923 102.615C512.822 105.422 513.823 106.894 516.83 106.894H521.711C525.021 106.894 526.827 105.691 528.031 102.615L532.977 90.4154C533.88 90.581 534.881 90.6811 535.919 90.6811C540.133 90.6811 544.041 89.1436 547.719 86.5357C547.721 86.5357 547.724 86.5339 547.726 86.5312C543.793 97.8309 544.88 104.26 549.525 106.828C551.163 107.762 553.236 108.198 555.607 108.198C563.123 108.198 569.727 103.3 575.661 95.974C575.744 102.737 579.35 108.195 586.454 108.195C591.772 108.195 596.351 104.986 599.058 102.613C600.764 101.009 601.532 101.109 602.635 103.214C603.937 105.52 606.747 108.195 612.43 108.195C617.776 108.195 622.658 105.688 627.171 101.645C627.239 101.611 627.305 101.577 627.373 101.509C627.505 101.343 627.673 101.209 627.804 101.075C628.34 100.507 628.64 99.7369 628.64 98.9039C628.64 97.0636 627.171 95.5941 625.333 95.5941C624.663 95.5941 624.027 95.7937 623.494 96.1622C623.325 96.2624 623.16 96.3962 623.025 96.5613C620.92 98.4016 619.015 99.4054 617.442 99.4054C615.437 99.4054 613.834 97.5996 618.244 86.6015L629.308 59.325Z" fill="#06B4BD"/>
<path d="M433.434 122.578V125.75H425.839V122.578H433.434ZM427.165 116.915V131.46H423.31V116.915H427.165ZM435.962 116.915V131.46H432.136V116.915H435.962ZM445.721 131.744C444.224 131.744 442.937 131.441 441.857 130.835C440.784 130.223 439.957 129.358 439.376 128.24C438.795 127.117 438.505 125.788 438.505 124.254C438.505 122.757 438.795 121.444 439.376 120.314C439.957 119.184 440.774 118.304 441.829 117.672C442.889 117.041 444.133 116.725 445.56 116.725C446.519 116.725 447.413 116.88 448.24 117.189C449.073 117.492 449.799 117.95 450.418 118.562C451.043 119.175 451.529 119.945 451.876 120.873C452.223 121.795 452.397 122.874 452.397 124.112V125.22H440.115V122.72H448.599C448.599 122.139 448.473 121.624 448.221 121.176C447.968 120.728 447.618 120.377 447.17 120.125C446.728 119.866 446.213 119.737 445.626 119.737C445.014 119.737 444.471 119.879 443.997 120.163C443.53 120.441 443.164 120.816 442.899 121.29C442.633 121.757 442.498 122.278 442.491 122.852V125.229C442.491 125.949 442.624 126.571 442.889 127.095C443.161 127.619 443.543 128.023 444.035 128.307C444.527 128.591 445.111 128.733 445.787 128.733C446.235 128.733 446.646 128.67 447.018 128.544C447.39 128.417 447.709 128.228 447.974 127.975C448.24 127.723 448.442 127.413 448.58 127.047L452.312 127.294C452.122 128.19 451.734 128.973 451.147 129.642C450.566 130.305 449.815 130.823 448.893 131.195C447.978 131.561 446.92 131.744 445.721 131.744ZM453.893 135.722V128.259H455.01C455.332 128.057 455.591 127.735 455.787 127.294C455.989 126.852 456.153 126.331 456.279 125.731C456.412 125.131 456.513 124.484 456.582 123.79C456.658 123.089 456.724 122.382 456.781 121.668L457.16 116.915H468.315V128.259H470.569V135.722H466.725V131.46H457.832V135.722H453.893ZM459.026 128.259H464.509V120.021H460.588L460.437 121.668C460.329 123.222 460.175 124.541 459.973 125.627C459.771 126.706 459.455 127.584 459.026 128.259ZM472.92 131.46V116.915H479.123C480.916 116.915 482.333 117.256 483.375 117.937C484.416 118.619 484.937 119.588 484.937 120.845C484.937 121.634 484.644 122.29 484.057 122.814C483.469 123.338 482.655 123.692 481.613 123.875C482.485 123.938 483.226 124.137 483.839 124.472C484.457 124.8 484.928 125.226 485.25 125.75C485.578 126.274 485.742 126.855 485.742 127.492C485.742 128.319 485.521 129.03 485.079 129.623C484.644 130.217 484.003 130.671 483.157 130.987C482.317 131.302 481.291 131.46 480.079 131.46H472.92ZM476.68 128.439H480.079C480.641 128.439 481.08 128.307 481.396 128.042C481.718 127.77 481.879 127.401 481.879 126.934C481.879 126.416 481.718 126.009 481.396 125.712C481.08 125.415 480.641 125.267 480.079 125.267H476.68V128.439ZM476.68 122.9H479.208C479.612 122.9 479.956 122.843 480.24 122.729C480.531 122.609 480.752 122.439 480.903 122.218C481.061 121.997 481.14 121.735 481.14 121.432C481.14 120.983 480.96 120.633 480.6 120.381C480.24 120.128 479.748 120.002 479.123 120.002H476.68V122.9ZM492.139 126.138L497.376 116.915H501.353V131.46H497.508V122.208L492.291 131.46H488.285V116.915H492.139V126.138ZM503.64 131.46L508.725 123.894L503.668 116.915H508.271L512.049 122.606H512.674V116.915H516.708V122.606H517.314L521.093 116.915H525.695L520.648 123.894L525.723 131.46H521.017L517.276 125.778H516.708V131.46H512.674V125.778H512.106L508.346 131.46H503.64ZM531.853 126.138L537.09 116.915H541.067V131.46H537.222V122.208L532.004 131.46H527.999V116.915H531.853V126.138ZM552.899 127L556.839 116.915H559.907L554.235 131.46H551.555L546.015 116.915H549.074L552.899 127ZM548.155 116.915V131.46H544.301V116.915H548.155ZM557.843 131.46V116.915H561.649V131.46H557.843ZM571.342 131.744C569.871 131.744 568.599 131.432 567.525 130.807C566.458 130.175 565.635 129.298 565.054 128.174C564.473 127.044 564.183 125.734 564.183 124.244C564.183 122.742 564.473 121.429 565.054 120.305C565.635 119.175 566.458 118.297 567.525 117.672C568.599 117.041 569.871 116.725 571.342 116.725C572.813 116.725 574.082 117.041 575.149 117.672C576.222 118.297 577.049 119.175 577.63 120.305C578.21 121.429 578.501 122.742 578.501 124.244C578.501 125.734 578.21 127.044 577.63 128.174C577.049 129.298 576.222 130.175 575.149 130.807C574.082 131.432 572.813 131.744 571.342 131.744ZM571.361 128.619C572.03 128.619 572.589 128.43 573.037 128.051C573.485 127.666 573.823 127.142 574.05 126.479C574.284 125.816 574.4 125.062 574.4 124.216C574.4 123.37 574.284 122.615 574.05 121.953C573.823 121.29 573.485 120.766 573.037 120.381C572.589 119.995 572.03 119.803 571.361 119.803C570.685 119.803 570.117 119.995 569.656 120.381C569.202 120.766 568.857 121.29 568.624 121.953C568.397 122.615 568.283 123.37 568.283 124.216C568.283 125.062 568.397 125.816 568.624 126.479C568.857 127.142 569.202 127.666 569.656 128.051C570.117 128.43 570.685 128.619 571.361 128.619ZM587.696 131.744C586.206 131.744 584.924 131.429 583.851 130.797C582.784 130.16 581.964 129.276 581.389 128.146C580.821 127.016 580.537 125.715 580.537 124.244C580.537 122.754 580.824 121.448 581.399 120.324C581.979 119.194 582.803 118.313 583.87 117.682C584.937 117.044 586.206 116.725 587.677 116.725C588.946 116.725 590.057 116.956 591.01 117.417C591.964 117.877 592.718 118.525 593.274 119.358C593.829 120.191 594.135 121.17 594.192 122.293H590.385C590.278 121.567 589.994 120.983 589.533 120.542C589.079 120.093 588.482 119.869 587.743 119.869C587.118 119.869 586.572 120.04 586.105 120.381C585.644 120.715 585.284 121.204 585.025 121.848C584.767 122.492 584.637 123.272 584.637 124.187C584.637 125.115 584.763 125.905 585.016 126.555C585.275 127.205 585.638 127.701 586.105 128.042C586.572 128.383 587.118 128.553 587.743 128.553C588.204 128.553 588.618 128.458 588.984 128.269C589.356 128.08 589.663 127.805 589.902 127.445C590.149 127.079 590.31 126.64 590.385 126.129H594.192C594.129 127.24 593.826 128.218 593.283 129.064C592.746 129.904 592.005 130.561 591.058 131.034C590.111 131.508 588.99 131.744 587.696 131.744ZM595.783 120.087V116.915H608.965V120.087H604.277V131.46H600.433V120.087H595.783ZM615.265 126.138L620.502 116.915H624.479V131.46H620.634V122.208L615.416 131.46H611.411V116.915H615.265V126.138Z" fill="#06B4BD"/>
</svg>
