<svg width="134" height="134" viewBox="0 0 134 134" fill="none" xmlns="http://www.w3.org/2000/svg">
<path d="M127.844 31.4063C127.242 31.0301 126.553 30.8135 125.843 30.7768C125.133 30.7402 124.426 30.8848 123.788 31.197C101.317 42.1892 85.268 37.0385 68.3034 31.6053C50.5065 25.905 32.0553 20.0163 6.56391 32.4637C5.85167 32.8053 5.25059 33.3415 4.83009 34.0102C4.40959 34.6789 4.18682 35.453 4.1875 36.2429V99.0188C4.1874 99.7293 4.36808 100.428 4.71253 101.049C5.05698 101.671 5.55388 102.194 6.15646 102.571C6.75905 102.947 7.44749 103.164 8.15702 103.201C8.86655 103.238 9.57382 103.094 10.2123 102.782C32.6834 91.7901 48.732 96.9407 65.7228 102.374C75.7937 105.593 86.0531 108.875 97.6525 108.875C106.598 108.875 116.355 106.928 127.441 101.516C128.145 101.172 128.739 100.637 129.155 99.9729C129.57 99.3085 129.791 98.5409 129.792 97.7573V34.9814C129.798 34.2691 129.622 33.5669 129.282 32.9413C128.941 32.3158 128.446 31.7874 127.844 31.4063ZM121.438 95.093C100.186 104.604 84.666 99.6417 68.2772 94.4021C58.2063 91.1829 47.9469 87.901 36.3475 87.901C28.1981 87.9405 20.1316 89.5396 12.5834 92.6119V38.9072C33.835 29.3963 49.3549 34.3585 65.7437 39.5981C82.1326 44.8378 99.003 50.2501 121.438 41.3988V95.093ZM67 50.2501C63.6872 50.2501 60.4487 51.2325 57.6942 53.073C54.9397 54.9135 52.7928 57.5295 51.525 60.5901C50.2572 63.6508 49.9255 67.0187 50.5718 70.2679C51.2181 73.517 52.8134 76.5016 55.156 78.8441C57.4985 81.1867 60.4831 82.782 63.7322 83.4283C66.9814 84.0746 70.3493 83.7428 73.4099 82.4751C76.4706 81.2073 79.0866 79.0604 80.9271 76.3059C82.7676 73.5514 83.75 70.3129 83.75 67.0001C83.75 62.5577 81.9853 58.2973 78.844 55.1561C75.7028 52.0148 71.4424 50.2501 67 50.2501ZM67 75.3751C65.3436 75.3751 63.7244 74.8839 62.3471 73.9637C60.9698 73.0434 59.8964 71.7354 59.2625 70.2051C58.6286 68.6747 58.4628 66.9908 58.7859 65.3662C59.1091 63.7416 59.9067 62.2493 61.078 61.0781C62.2492 59.9068 63.7415 59.1092 65.3661 58.786C66.9907 58.4629 68.6746 58.6287 70.205 59.2626C71.7353 59.8965 73.0433 60.9699 73.9636 62.3472C74.8838 63.7245 75.375 65.3437 75.375 67.0001C75.375 69.2213 74.4926 71.3515 72.922 72.9221C71.3514 74.4927 69.2212 75.3751 67 75.3751ZM29.3125 50.2501V75.3751C29.3125 76.4857 28.8713 77.5508 28.086 78.3361C27.3007 79.1214 26.2356 79.5626 25.125 79.5626C24.0144 79.5626 22.9493 79.1214 22.164 78.3361C21.3787 77.5508 20.9375 76.4857 20.9375 75.3751V50.2501C20.9375 49.1395 21.3787 48.0744 22.164 47.2891C22.9493 46.5038 24.0144 46.0626 25.125 46.0626C26.2356 46.0626 27.3007 46.5038 28.086 47.2891C28.8713 48.0744 29.3125 49.1395 29.3125 50.2501ZM104.688 83.7501V58.6251C104.688 57.5145 105.129 56.4494 105.914 55.6641C106.699 54.8788 107.764 54.4376 108.875 54.4376C109.986 54.4376 111.051 54.8788 111.836 55.6641C112.621 56.4494 113.062 57.5145 113.062 58.6251V83.7501C113.062 84.8607 112.621 85.9258 111.836 86.7111C111.051 87.4964 109.986 87.9376 108.875 87.9376C107.764 87.9376 106.699 87.4964 105.914 86.7111C105.129 85.9258 104.688 84.8607 104.688 83.7501Z" fill="#08A1C1"/>
</svg>
