<svg width="134" height="134" viewBox="0 0 134 134" fill="none" xmlns="http://www.w3.org/2000/svg">
<g id="ph:building-fill">
<path id="Vector" d="M113.429 109.857H102.714V24.1429H106.286C107.233 24.1429 108.141 23.7666 108.811 23.0968C109.481 22.427 109.857 21.5186 109.857 20.5714C109.857 19.6242 109.481 18.7158 108.811 18.046C108.141 17.3763 107.233 17 106.286 17H27.7143C26.7671 17 25.8587 17.3763 25.1889 18.046C24.5191 18.7158 24.1429 19.6242 24.1429 20.5714C24.1429 21.5186 24.5191 22.427 25.1889 23.0968C25.8587 23.7666 26.7671 24.1429 27.7143 24.1429H31.2857V109.857H20.5714C19.6242 109.857 18.7158 110.233 18.046 110.903C17.3763 111.573 17 112.481 17 113.429C17 114.376 17.3763 115.284 18.046 115.954C18.7158 116.624 19.6242 117 20.5714 117H113.429C114.376 117 115.284 116.624 115.954 115.954C116.624 115.284 117 114.376 117 113.429C117 112.481 116.624 111.573 115.954 110.903C115.284 110.233 114.376 109.857 113.429 109.857ZM49.1429 34.8571H59.8571C60.8043 34.8571 61.7127 35.2334 62.3825 35.9032C63.0523 36.573 63.4286 37.4814 63.4286 38.4286C63.4286 39.3758 63.0523 40.2842 62.3825 40.954C61.7127 41.6237 60.8043 42 59.8571 42H49.1429C48.1957 42 47.2872 41.6237 46.6175 40.954C45.9477 40.2842 45.5714 39.3758 45.5714 38.4286C45.5714 37.4814 45.9477 36.573 46.6175 35.9032C47.2872 35.2334 48.1957 34.8571 49.1429 34.8571ZM49.1429 52.7143H59.8571C60.8043 52.7143 61.7127 53.0906 62.3825 53.7603C63.0523 54.4301 63.4286 55.3385 63.4286 56.2857C63.4286 57.2329 63.0523 58.1413 62.3825 58.8111C61.7127 59.4809 60.8043 59.8571 59.8571 59.8571H49.1429C48.1957 59.8571 47.2872 59.4809 46.6175 58.8111C45.9477 58.1413 45.5714 57.2329 45.5714 56.2857C45.5714 55.3385 45.9477 54.4301 46.6175 53.7603C47.2872 53.0906 48.1957 52.7143 49.1429 52.7143ZM45.5714 74.1429C45.5714 73.1957 45.9477 72.2872 46.6175 71.6175C47.2872 70.9477 48.1957 70.5714 49.1429 70.5714H59.8571C60.8043 70.5714 61.7127 70.9477 62.3825 71.6175C63.0523 72.2872 63.4286 73.1957 63.4286 74.1429C63.4286 75.0901 63.0523 75.9985 62.3825 76.6682C61.7127 77.338 60.8043 77.7143 59.8571 77.7143H49.1429C48.1957 77.7143 47.2872 77.338 46.6175 76.6682C45.9477 75.9985 45.5714 75.0901 45.5714 74.1429ZM77.7143 109.857H56.2857V92H77.7143V109.857ZM84.8571 77.7143H74.1429C73.1957 77.7143 72.2872 77.338 71.6175 76.6682C70.9477 75.9985 70.5714 75.0901 70.5714 74.1429C70.5714 73.1957 70.9477 72.2872 71.6175 71.6175C72.2872 70.9477 73.1957 70.5714 74.1429 70.5714H84.8571C85.8043 70.5714 86.7128 70.9477 87.3825 71.6175C88.0523 72.2872 88.4286 73.1957 88.4286 74.1429C88.4286 75.0901 88.0523 75.9985 87.3825 76.6682C86.7128 77.338 85.8043 77.7143 84.8571 77.7143ZM84.8571 59.8571H74.1429C73.1957 59.8571 72.2872 59.4809 71.6175 58.8111C70.9477 58.1413 70.5714 57.2329 70.5714 56.2857C70.5714 55.3385 70.9477 54.4301 71.6175 53.7603C72.2872 53.0906 73.1957 52.7143 74.1429 52.7143H84.8571C85.8043 52.7143 86.7128 53.0906 87.3825 53.7603C88.0523 54.4301 88.4286 55.3385 88.4286 56.2857C88.4286 57.2329 88.0523 58.1413 87.3825 58.8111C86.7128 59.4809 85.8043 59.8571 84.8571 59.8571ZM84.8571 42H74.1429C73.1957 42 72.2872 41.6237 71.6175 40.954C70.9477 40.2842 70.5714 39.3758 70.5714 38.4286C70.5714 37.4814 70.9477 36.573 71.6175 35.9032C72.2872 35.2334 73.1957 34.8571 74.1429 34.8571H84.8571C85.8043 34.8571 86.7128 35.2334 87.3825 35.9032C88.0523 36.573 88.4286 37.4814 88.4286 38.4286C88.4286 39.3758 88.0523 40.2842 87.3825 40.954C86.7128 41.6237 85.8043 42 84.8571 42Z" fill="#08A1C1"/>
</g>
</svg>
