<svg width="34" height="35" viewBox="0 0 34 35" fill="none" xmlns="http://www.w3.org/2000/svg">
<path fill-rule="evenodd" clip-rule="evenodd" d="M32.9862 4.55284C33.1857 4.35354 33.344 4.1169 33.4521 3.85642C33.5602 3.59593 33.6159 3.31671 33.6161 3.03469C33.6163 2.75267 33.5609 2.47338 33.4531 2.21277C33.3454 1.95215 33.1873 1.71531 32.988 1.51577C32.7887 1.31623 32.5521 1.1579 32.2916 1.04982C32.0311 0.941734 31.7519 0.886015 31.4699 0.885841C31.1879 0.885668 30.9086 0.941044 30.648 1.04881C30.3873 1.15657 30.1505 1.31461 29.951 1.5139L17 14.4648L4.05284 1.5139C3.64985 1.11092 3.10328 0.884521 2.53337 0.884521C1.96346 0.884521 1.41689 1.11092 1.0139 1.5139C0.610917 1.91689 0.384521 2.46346 0.384521 3.03337C0.384521 3.60328 0.610917 4.14985 1.0139 4.55284L13.9648 17.5L1.0139 30.4472C0.814366 30.6468 0.656082 30.8837 0.548093 31.1444C0.440103 31.4051 0.384521 31.6845 0.384521 31.9667C0.384521 32.2489 0.440103 32.5283 0.548093 32.789C0.656082 33.0497 0.814366 33.2866 1.0139 33.4862C1.41689 33.8892 1.96346 34.1156 2.53337 34.1156C2.81556 34.1156 3.09499 34.06 3.3557 33.952C3.61641 33.844 3.8533 33.6857 4.05284 33.4862L17 20.5352L29.951 33.4862C30.354 33.8887 30.9003 34.1146 31.4699 34.1142C32.0395 34.1139 32.5855 33.8873 32.988 33.4843C33.3905 33.0813 33.6165 32.5349 33.6161 31.9654C33.6157 31.3958 33.3892 30.8497 32.9862 30.4472L20.0352 17.5L32.9862 4.55284Z" fill="#343434"/>
</svg>
