<svg width="134" height="134" viewBox="0 0 134 134" fill="none" xmlns="http://www.w3.org/2000/svg">
<g id="f7:money-dollar-circle-fill">
<path id="Vector" d="M17 67C17 39.3854 39.3854 17 67 17C94.6146 17 117 39.3854 117 67C117 94.6146 94.6146 117 67 117C39.3854 117 17 94.6146 17 67ZM68.1937 70.6333C74.3896 72.1583 76.2458 74.1792 76.2458 77.5917C76.2458 81.1375 73.8604 83.8208 68.1937 84.2521V70.6333ZM64.45 62.9812C59.15 61.6542 57.1604 59.4354 57.1604 56.4187C57.1604 53.4021 59.6792 50.6542 64.4521 50.0583L64.45 62.9812ZM68.1937 63.875V50.0583C72.4354 50.5875 75.4167 53.0062 75.8479 57.1833H82.7396C82.475 49.6625 76.4771 44.6917 68.1937 44.0271V38.4292H64.45V44.0271C56.1 44.6583 50.1375 49.5604 50.1375 56.9833C50.1375 63.7083 54.6771 67.4875 63.0917 69.4417L64.45 69.7729V84.2187C59.1167 83.6562 56.5979 80.8062 56.0021 76.9292H49.1437C49.3729 84.8812 56.0354 89.6187 64.45 90.25V95.8146H68.1937V90.25C76.6437 89.6521 83.2708 85.0479 83.2708 76.9292C83.2708 69.8729 78.5 66.2937 69.7854 64.2729L68.1937 63.875Z" fill="#08A1C1"/>
</g>
</svg>
