<svg width="35" height="34" viewBox="0 0 35 34" fill="none" xmlns="http://www.w3.org/2000/svg">
<path d="M19.2132 0.333374C21.0882 0.338374 22.0399 0.348374 22.8616 0.371707L23.1849 0.383374C23.5582 0.396707 23.9266 0.413374 24.3716 0.433374C26.1449 0.516707 27.3549 0.796708 28.4166 1.20837C29.5166 1.63171 30.4432 2.20504 31.3699 3.13004C32.2177 3.96293 32.8735 4.97083 33.2916 6.08337C33.7032 7.14504 33.9832 8.35504 34.0666 10.13C34.0866 10.5734 34.1032 10.9417 34.1166 11.3167L34.1266 11.64C34.1516 12.46 34.1616 13.4117 34.1649 15.2867L34.1666 16.53V18.7134C34.1706 19.929 34.1578 21.1447 34.1282 22.36L34.1182 22.6834C34.1049 23.0584 34.0882 23.4267 34.0682 23.87C33.9849 25.645 33.7016 26.8534 33.2916 27.9167C32.8735 29.0293 32.2177 30.0372 31.3699 30.87C30.537 31.7179 29.5291 32.3737 28.4166 32.7917C27.3549 33.2034 26.1449 33.4834 24.3716 33.5667L23.1849 33.6167L22.8616 33.6267C22.0399 33.65 21.0882 33.6617 19.2132 33.665L17.9699 33.6667H15.7882C14.572 33.671 13.3558 33.6582 12.1399 33.6284L11.8166 33.6184C11.4209 33.6034 11.0253 33.5862 10.6299 33.5667C8.85656 33.4834 7.64656 33.2034 6.58322 32.7917C5.47127 32.3735 4.46396 31.7177 3.63156 30.87C2.78313 30.0373 2.12674 29.0294 1.70822 27.9167C1.29656 26.855 1.01656 25.645 0.933223 23.87L0.883223 22.6834L0.87489 22.36C0.844167 21.1447 0.830277 19.9291 0.833223 18.7134V15.2867C0.82861 14.071 0.840834 12.8554 0.86989 11.64L0.881557 11.3167C0.89489 10.9417 0.911557 10.5734 0.931557 10.13C1.01489 8.35504 1.29489 7.14671 1.70656 6.08337C2.12605 4.97037 2.7836 3.96243 3.63322 3.13004C4.46515 2.28262 5.47187 1.62683 6.58322 1.20837C7.64656 0.796708 8.85489 0.516707 10.6299 0.433374C11.0732 0.413374 11.4432 0.396707 11.8166 0.383374L12.1399 0.373374C13.3552 0.343762 14.5709 0.330983 15.7866 0.335041L19.2132 0.333374ZM17.4999 8.66671C15.2898 8.66671 13.1701 9.54468 11.6073 11.1075C10.0445 12.6703 9.16656 14.7899 9.16656 17C9.16656 19.2102 10.0445 21.3298 11.6073 22.8926C13.1701 24.4554 15.2898 25.3334 17.4999 25.3334C19.71 25.3334 21.8296 24.4554 23.3924 22.8926C24.9552 21.3298 25.8332 19.2102 25.8332 17C25.8332 14.7899 24.9552 12.6703 23.3924 11.1075C21.8296 9.54468 19.71 8.66671 17.4999 8.66671ZM17.4999 12C18.1565 11.9999 18.8067 12.1292 19.4134 12.3803C20.02 12.6315 20.5713 12.9997 21.0357 13.4639C21.5 13.9281 21.8684 14.4793 22.1198 15.0859C22.3712 15.6924 22.5006 16.3426 22.5007 16.9992C22.5008 17.6558 22.3716 18.306 22.1204 18.9127C21.8693 19.5194 21.5011 20.0706 21.0368 20.535C20.5726 20.9994 20.0215 21.3677 19.4149 21.6191C18.8083 21.8705 18.1582 21.9999 17.5016 22C16.1755 22 14.9037 21.4733 13.966 20.5356C13.0283 19.5979 12.5016 18.3261 12.5016 17C12.5016 15.674 13.0283 14.4022 13.966 13.4645C14.9037 12.5268 16.1755 12 17.5016 12M26.2516 6.16671C25.699 6.16671 25.1691 6.3862 24.7784 6.7769C24.3877 7.1676 24.1682 7.69751 24.1682 8.25004C24.1682 8.80258 24.3877 9.33248 24.7784 9.72318C25.1691 10.1139 25.699 10.3334 26.2516 10.3334C26.8041 10.3334 27.334 10.1139 27.7247 9.72318C28.1154 9.33248 28.3349 8.80258 28.3349 8.25004C28.3349 7.69751 28.1154 7.1676 27.7247 6.7769C27.334 6.3862 26.8041 6.16671 26.2516 6.16671Z" fill="white"/>
</svg>
