<svg width="134" height="134" viewBox="0 0 134 134" fill="none" xmlns="http://www.w3.org/2000/svg">
<g id="ic:sharp-key">
<path id="Vector" d="M107.909 58.1818H69.9545C68.0821 52.8658 64.6061 48.2619 60.0061 45.0053C55.4061 41.7487 49.9088 39.9998 44.2727 40C29.2273 40 17 52.2273 17 67.2727C17 82.3182 29.2273 94.5455 44.2727 94.5455C49.9088 94.5457 55.4061 92.7968 60.0061 89.5402C64.6061 86.2835 68.0821 81.6796 69.9545 76.3636H71.5455L80.6364 85.4545L89.7273 76.3636L98.8182 85.4545L117 67.0909L107.909 58.1818ZM44.2727 80.9091C36.7727 80.9091 30.6364 74.7727 30.6364 67.2727C30.6364 59.7727 36.7727 53.6364 44.2727 53.6364C51.7727 53.6364 57.9091 59.7727 57.9091 67.2727C57.9091 74.7727 51.7727 80.9091 44.2727 80.9091Z" fill="#08A1C1"/>
</g>
</svg>
