<svg width="35" height="34" viewBox="0 0 35 34" fill="none" xmlns="http://www.w3.org/2000/svg">
<path d="M17.4999 0.333374C8.29992 0.333374 0.833252 7.80004 0.833252 17C0.833252 26.2 8.29992 33.6667 17.4999 33.6667C26.6999 33.6667 34.1666 26.2 34.1666 17C34.1666 7.80004 26.6999 0.333374 17.4999 0.333374ZM25.2333 11.6667C24.9833 14.3 23.8999 20.7 23.3499 23.65C23.1166 24.9 22.6499 25.3167 22.2166 25.3667C21.2499 25.45 20.5166 24.7334 19.5833 24.1167C18.1166 23.15 17.2833 22.55 15.8666 21.6167C14.2166 20.5334 15.2833 19.9334 16.2333 18.9667C16.4833 18.7167 20.7499 14.8334 20.8333 14.4834C20.8448 14.4304 20.8433 14.3753 20.8288 14.323C20.8142 14.2708 20.7872 14.2228 20.7499 14.1834C20.6499 14.1 20.5166 14.1334 20.3999 14.15C20.2499 14.1834 17.9166 15.7334 13.3666 18.8C12.6999 19.25 12.0999 19.4834 11.5666 19.4667C10.9666 19.45 9.83325 19.1334 8.98325 18.85C7.93325 18.5167 7.11659 18.3334 7.18325 17.75C7.21659 17.45 7.63325 17.15 8.41659 16.8334C13.2833 14.7167 16.5166 13.3167 18.1333 12.65C22.7666 10.7167 23.7166 10.3834 24.3499 10.3834C24.4833 10.3834 24.7999 10.4167 24.9999 10.5834C25.1666 10.7167 25.2166 10.9 25.2333 11.0334C25.2166 11.1334 25.2499 11.4334 25.2333 11.6667Z" fill="white"/>
</svg>
