<svg width="134" height="125" viewBox="0 0 134 125" fill="none" xmlns="http://www.w3.org/2000/svg">
<g id="fa:users">
<path id="Vector" d="M47.8854 62.3415C42.2604 62.5139 37.6597 64.7206 34.0833 68.9617H27.1042C24.2569 68.9617 21.8611 68.2634 19.9167 66.867C17.9722 65.4705 17 63.4276 17 60.7381C17 48.5666 19.1528 42.4808 23.4583 42.4808C23.6667 42.4808 24.4219 42.8429 25.724 43.567C27.026 44.291 28.7188 45.0238 30.8021 45.7651C32.8854 46.5064 34.9514 46.8771 37 46.8771C39.3264 46.8771 41.6354 46.4805 43.9271 45.6875C43.7535 46.9633 43.6667 48.1011 43.6667 49.101C43.6667 53.8938 45.0729 58.3073 47.8854 62.3415ZM103.667 95.2873C103.667 99.425 102.399 102.692 99.8646 105.088C97.3299 107.485 93.9618 108.683 89.7604 108.683H44.2396C40.0382 108.683 36.6701 107.485 34.1354 105.088C31.6007 102.692 30.3333 99.425 30.3333 95.2873C30.3333 93.4599 30.3941 91.6755 30.5156 89.9343C30.6372 88.193 30.8802 86.3139 31.2448 84.2968C31.6094 82.2797 32.0694 80.4091 32.625 78.6851C33.1806 76.9611 33.9271 75.2802 34.8646 73.6424C35.8021 72.0046 36.8785 70.6081 38.0938 69.453C39.309 68.2979 40.7934 67.3756 42.5469 66.686C44.3003 65.9964 46.2361 65.6516 48.3542 65.6516C48.7014 65.6516 49.4479 66.0222 50.5938 66.7636C51.7396 67.5049 53.0069 68.3324 54.3958 69.2461C55.7847 70.1599 57.6424 70.9874 59.9688 71.7287C62.2951 72.47 64.6389 72.8407 67 72.8407C69.3611 72.8407 71.7049 72.47 74.0312 71.7287C76.3576 70.9874 78.2153 70.1599 79.6042 69.2461C80.9931 68.3324 82.2604 67.5049 83.4062 66.7636C84.5521 66.0222 85.2986 65.6516 85.6458 65.6516C87.7639 65.6516 89.6997 65.9964 91.4531 66.686C93.2066 67.3756 94.691 68.2979 95.9062 69.453C97.1215 70.6081 98.1979 72.0046 99.1354 73.6424C100.073 75.2802 100.819 76.9611 101.375 78.6851C101.931 80.4091 102.391 82.2797 102.755 84.2968C103.12 86.3139 103.363 88.193 103.484 89.9343C103.606 91.6755 103.667 93.4599 103.667 95.2873ZM50.3333 29.2404C50.3333 32.8953 49.0312 36.0158 46.4271 38.6018C43.8229 41.1878 40.6806 42.4808 37 42.4808C33.3194 42.4808 30.1771 41.1878 27.5729 38.6018C24.9688 36.0158 23.6667 32.8953 23.6667 29.2404C23.6667 25.5855 24.9688 22.465 27.5729 19.879C30.1771 17.293 33.3194 16 37 16C40.6806 16 43.8229 17.293 46.4271 19.879C49.0312 22.465 50.3333 25.5855 50.3333 29.2404ZM87 49.101C87 54.5834 85.0469 59.2641 81.1406 63.1431C77.2344 67.0222 72.5208 68.9617 67 68.9617C61.4792 68.9617 56.7656 67.0222 52.8594 63.1431C48.9531 59.2641 47 54.5834 47 49.101C47 43.6187 48.9531 38.938 52.8594 35.059C56.7656 31.1799 61.4792 29.2404 67 29.2404C72.5208 29.2404 77.2344 31.1799 81.1406 35.059C85.0469 38.938 87 43.6187 87 49.101ZM117 60.7381C117 63.4276 116.028 65.4705 114.083 66.867C112.139 68.2634 109.743 68.9617 106.896 68.9617H99.9167C96.3403 64.7206 91.7396 62.5139 86.1146 62.3415C88.9271 58.3073 90.3333 53.8938 90.3333 49.101C90.3333 48.1011 90.2465 46.9633 90.0729 45.6875C92.3646 46.4805 94.6736 46.8771 97 46.8771C99.0486 46.8771 101.115 46.5064 103.198 45.7651C105.281 45.0238 106.974 44.291 108.276 43.567C109.578 42.8429 110.333 42.4808 110.542 42.4808C114.847 42.4808 117 48.5666 117 60.7381ZM110.333 29.2404C110.333 32.8953 109.031 36.0158 106.427 38.6018C103.823 41.1878 100.681 42.4808 97 42.4808C93.3194 42.4808 90.1771 41.1878 87.5729 38.6018C84.9688 36.0158 83.6667 32.8953 83.6667 29.2404C83.6667 25.5855 84.9688 22.465 87.5729 19.879C90.1771 17.293 93.3194 16 97 16C100.681 16 103.823 17.293 106.427 19.879C109.031 22.465 110.333 25.5855 110.333 29.2404Z" fill="#08A1C1"/>
</g>
</svg>
